<svg width="24" height="24" viewBox="0 0 24 24" fill="none" xmlns="http://www.w3.org/2000/svg">
<path d="M11 19.9999C10.6059 20.0009 10.2155 19.9238 9.85145 19.7729C9.48738 19.622 9.15685 19.4004 8.879 19.1209L4.879 15.1209C4.312 14.5549 4 13.8009 4 12.9999C4 12.1989 4.312 11.4449 4.879 10.8779C6.012 9.74493 7.988 9.74493 9.121 10.8779L10.309 12.0659L13.378 6.54293C13.6658 6.02383 14.1011 5.60181 14.6289 5.33028C15.1567 5.05875 15.7532 4.94993 16.3428 5.01761C16.9325 5.08528 17.4888 5.32639 17.9413 5.71042C18.3939 6.09446 18.7223 6.60414 18.885 7.17493C18.9943 7.55378 19.0274 7.95057 18.9822 8.34229C18.9371 8.73401 18.8146 9.11287 18.622 9.45693L13.622 18.4569C13.3606 18.9231 12.9801 19.3116 12.5195 19.5827C12.0588 19.8538 11.5345 19.9978 11 19.9999ZM7 11.9999C6.732 11.9999 6.482 12.1039 6.293 12.2929C6.104 12.4819 6 12.7319 6 12.9999C6 13.2679 6.104 13.5179 6.293 13.7069L10.293 17.7069C10.4026 17.816 10.536 17.8981 10.6826 17.9471C10.8293 17.996 10.9853 18.0103 11.1384 17.9889C11.2915 17.9675 11.4375 17.9109 11.5652 17.8237C11.6928 17.7364 11.7985 17.6208 11.874 17.4859L16.874 8.48593C17.0029 8.25427 17.0346 7.98091 16.962 7.72593C16.9257 7.59938 16.8648 7.48123 16.7828 7.37827C16.7008 7.27531 16.5992 7.18955 16.484 7.12593C16.2517 7.00192 15.9802 6.97307 15.727 7.04546C15.4738 7.11786 15.2587 7.28584 15.127 7.51393L10.77 15.3549L7.708 12.2929C7.61504 12.1999 7.50466 12.1262 7.38318 12.0759C7.26169 12.0256 7.13148 11.9998 7 11.9999Z" fill="black"/>
</svg>
