<svg width="30" height="30" viewBox="0 0 30 30" fill="none" xmlns="http://www.w3.org/2000/svg">
<path fill-rule="evenodd" clip-rule="evenodd" d="M10.3125 1.875C10.1653 1.87499 10.0202 1.90965 9.88884 1.97616C9.75752 2.04267 9.64371 2.13917 9.55662 2.25785C9.46953 2.37652 9.41161 2.51404 9.38755 2.65926C9.36349 2.80448 9.37396 2.95333 9.41812 3.09375L9.62437 3.75H6.5625C6.31386 3.75 6.0754 3.84877 5.89959 4.02459C5.72377 4.2004 5.625 4.43886 5.625 4.6875V27.1875C5.625 27.4361 5.72377 27.6746 5.89959 27.8504C6.0754 28.0262 6.31386 28.125 6.5625 28.125H23.4375C23.6861 28.125 23.9246 28.0262 24.1004 27.8504C24.2762 27.6746 24.375 27.4361 24.375 27.1875V4.6875C24.375 4.43886 24.2762 4.2004 24.1004 4.02459C23.9246 3.84877 23.6861 3.75 23.4375 3.75H20.3775L20.5837 3.09375C20.628 2.95318 20.6384 2.80416 20.6142 2.6588C20.5901 2.51343 20.532 2.37581 20.4447 2.25709C20.3574 2.13837 20.2433 2.04191 20.1118 1.97552C19.9802 1.90914 19.8349 1.8747 19.6875 1.875H10.3125ZM11.5875 3.75H18.4125L17.8256 5.625H12.1744L11.5875 3.75ZM20.625 13.125H9.375V11.25H20.625V13.125ZM20.625 17.8125H9.375V15.9375H20.625V17.8125ZM9.375 22.5H16.875V20.625H9.375V22.5Z" fill="black"/>
</svg>
