<svg width="30" height="30" viewBox="0 0 30 30" fill="none" xmlns="http://www.w3.org/2000/svg">
<path d="M15 8.75C14.337 8.75 13.7011 8.48661 13.2322 8.01777C12.7634 7.54893 12.5 6.91304 12.5 6.25C12.5 5.58696 12.7634 4.95107 13.2322 4.48223C13.7011 4.01339 14.337 3.75 15 3.75C15.663 3.75 16.2989 4.01339 16.7678 4.48223C17.2366 4.95107 17.5 5.58696 17.5 6.25C17.5 6.91304 17.2366 7.54893 16.7678 8.01777C16.2989 8.48661 15.663 8.75 15 8.75ZM15 8.75V13.75M15 13.75C15.9946 13.75 16.9484 14.1451 17.6517 14.8483C18.3549 15.5516 18.75 16.5054 18.75 17.5C18.75 18.4946 18.3549 19.4484 17.6517 20.1517C16.9484 20.8549 15.9946 21.25 15 21.25C14.0054 21.25 13.0516 20.8549 12.3483 20.1517C11.6451 19.4484 11.25 18.4946 11.25 17.5C11.25 16.5054 11.6451 15.5516 12.3483 14.8483C13.0516 14.1451 14.0054 13.75 15 13.75ZM8.375 22.25L11.875 19.75M21.625 22.25L18.125 19.75M3.75 23.75C3.75 24.413 4.01339 25.0489 4.48223 25.5178C4.95107 25.9866 5.58696 26.25 6.25 26.25C6.91304 26.25 7.54893 25.9866 8.01777 25.5178C8.48661 25.0489 8.75 24.413 8.75 23.75C8.75 23.087 8.48661 22.4511 8.01777 21.9822C7.54893 21.5134 6.91304 21.25 6.25 21.25C5.58696 21.25 4.95107 21.5134 4.48223 21.9822C4.01339 22.4511 3.75 23.087 3.75 23.75ZM21.25 23.75C21.25 24.413 21.5134 25.0489 21.9822 25.5178C22.4511 25.9866 23.087 26.25 23.75 26.25C24.413 26.25 25.0489 25.9866 25.5178 25.5178C25.9866 25.0489 26.25 24.413 26.25 23.75C26.25 23.087 25.9866 22.4511 25.5178 21.9822C25.0489 21.5134 24.413 21.25 23.75 21.25C23.087 21.25 22.4511 21.5134 21.9822 21.9822C21.5134 22.4511 21.25 23.087 21.25 23.75Z" stroke="black" stroke-width="2" stroke-linecap="round" stroke-linejoin="round"/>
</svg>
