<svg width="50" height="50" viewBox="0 0 50 50" fill="none" xmlns="http://www.w3.org/2000/svg">
<rect width="50" height="50" rx="8" fill="#4A90E2"/>
<path d="M25 10C32.18 10 38 15.82 38 23C38 30.18 32.18 36 25 36C17.82 36 12 30.18 12 23C12 15.82 17.82 10 25 10ZM25 12C18.925 12 14 16.925 14 23C14 29.075 18.925 34 25 34C31.075 34 36 29.075 36 23C36 16.925 31.075 12 25 12ZM25 14C29.97 14 34 18.03 34 23C34 27.97 29.97 32 25 32C20.03 32 16 27.97 16 23C16 18.03 20.03 14 25 14ZM25 16C21.134 16 18 19.134 18 23C18 26.866 21.134 30 25 30C28.866 30 32 26.866 32 23C32 19.134 28.866 16 25 16Z" fill="white"/>
<path d="M25 18C27.761 18 30 20.239 30 23C30 25.761 27.761 28 25 28C22.239 28 20 25.761 20 23C20 20.239 22.239 18 25 18Z" fill="white"/>
<text x="25" y="45" text-anchor="middle" fill="#4A90E2" font-family="Arial, sans-serif" font-size="8" font-weight="bold">WEB</text>
</svg>